<?xml version="1.0" encoding="UTF-8"?>
<svg xmlns="http://www.w3.org/2000/svg" xmlns:xlink="http://www.w3.org/1999/xlink" width="100px" height="100px" viewBox="0 0 100 100" version="1.1">
<g id="surface1">
<path style=" stroke:none;fill-rule:nonzero;fill:rgb(65.882353%,69.803922%,70.588235%);fill-opacity:1;" d="M 5.078125 87.519531 L 94.941406 87.519531 L 94.941406 92.285156 L 5.078125 92.285156 Z M 5.078125 87.519531 "/>
<path style=" stroke:none;fill-rule:nonzero;fill:rgb(82.745098%,85.098039%,85.098039%);fill-opacity:1;" d="M 5.078125 87.519531 L 94.941406 87.519531 L 94.941406 92.285156 L 5.078125 92.285156 Z M 5.078125 87.519531 "/>
<path style=" stroke:none;fill-rule:nonzero;fill:rgb(65.882353%,69.803922%,70.588235%);fill-opacity:1;" d="M 0.761719 92.285156 L 99.21875 92.285156 L 99.21875 97.050781 L 0.761719 97.050781 Z M 0.761719 92.285156 "/>
<path style=" stroke:none;fill-rule:nonzero;fill:rgb(82.745098%,85.098039%,85.098039%);fill-opacity:1;" d="M 0.761719 92.285156 L 6.679688 92.285156 L 6.679688 97.050781 L 0.761719 97.050781 Z M 0.761719 92.285156 "/>
<path style=" stroke:none;fill-rule:nonzero;fill:rgb(48.627451%,54.509804%,55.686275%);fill-opacity:1;" d="M 93.300781 92.285156 L 99.21875 92.285156 L 99.21875 97.050781 L 93.300781 97.050781 Z M 93.300781 92.285156 "/>
<path style=" stroke:none;fill-rule:nonzero;fill:rgb(92.941176%,92.941176%,92.941176%);fill-opacity:1;" d="M 5.078125 87.519531 L 10.332031 87.519531 L 10.332031 92.285156 L 5.078125 92.285156 Z M 5.078125 87.519531 "/>
<path style=" stroke:none;fill-rule:nonzero;fill:rgb(65.882353%,69.803922%,70.588235%);fill-opacity:1;" d="M 89.667969 87.519531 L 94.921875 87.519531 L 94.921875 92.285156 L 89.667969 92.285156 Z M 89.667969 87.519531 "/>
<path style=" stroke:none;fill-rule:nonzero;fill:rgb(100%,100%,100%);fill-opacity:1;" d="M 7.695312 16.25 L 92.304688 16.25 L 92.304688 87.519531 L 7.695312 87.519531 Z M 7.695312 16.25 "/>
<path style=" stroke:none;fill-rule:nonzero;fill:rgb(98.823529%,54.117647%,54.117647%);fill-opacity:1;" d="M 92.304688 5.019531 L 92.304688 12.890625 L 7.695312 12.890625 L 7.695312 5.019531 C 7.695312 3.886719 8.808594 2.949219 10.195312 2.949219 L 89.785156 2.949219 C 91.171875 2.949219 92.304688 3.867188 92.304688 5.019531 Z M 92.304688 5.019531 "/>
<path style=" stroke:none;fill-rule:nonzero;fill:rgb(98.823529%,69.019608%,69.019608%);fill-opacity:1;" d="M 15.019531 2.949219 C 13.632812 2.949219 12.519531 3.867188 12.519531 5.019531 L 12.519531 12.890625 L 7.695312 12.890625 L 7.695312 5.019531 C 7.695312 3.886719 8.808594 2.949219 10.195312 2.949219 Z M 15.019531 2.949219 "/>
<path style=" stroke:none;fill-rule:nonzero;fill:rgb(97.647059%,38.823529%,39.215686%);fill-opacity:1;" d="M 92.304688 5.019531 L 92.304688 12.890625 L 87.5 12.890625 L 87.5 5.019531 C 87.5 3.886719 86.386719 2.949219 85 2.949219 L 89.804688 2.949219 C 91.171875 2.949219 92.304688 3.867188 92.304688 5.019531 Z M 92.304688 5.019531 "/>
<path style=" stroke:none;fill-rule:nonzero;fill:rgb(47.843137%,82.352941%,98.039216%);fill-opacity:1;" d="M 62.421875 44.53125 L 87.382812 44.53125 L 87.382812 87.539062 L 62.421875 87.539062 Z M 62.421875 44.53125 "/>
<path style=" stroke:none;fill-rule:nonzero;fill:rgb(47.843137%,82.352941%,98.039216%);fill-opacity:1;" d="M 12.617188 44.53125 L 57.5 44.53125 L 57.5 80.839844 L 12.617188 80.839844 Z M 12.617188 44.53125 "/>
<path style=" stroke:none;fill-rule:nonzero;fill:rgb(65.882353%,69.803922%,70.588235%);fill-opacity:1;" d="M 57.5 60.9375 L 57.5 64.414062 L 36.796875 64.414062 L 36.796875 80.820312 L 33.320312 80.820312 L 33.320312 64.414062 L 12.617188 64.414062 L 12.617188 60.9375 L 33.320312 60.9375 L 33.320312 44.53125 L 36.796875 44.53125 L 36.796875 60.9375 Z M 57.5 60.9375 "/>
<path style=" stroke:none;fill-rule:nonzero;fill:rgb(20%,20%,20%);fill-opacity:1;" d="M 57.5 43.75 L 12.617188 43.75 C 12.1875 43.75 11.855469 44.101562 11.855469 44.511719 L 11.855469 80.820312 C 11.855469 81.25 12.207031 81.582031 12.617188 81.582031 L 33.300781 81.582031 C 33.300781 81.582031 33.300781 81.582031 33.320312 81.582031 L 36.796875 81.582031 C 36.796875 81.582031 36.796875 81.582031 36.816406 81.582031 L 57.5 81.582031 C 57.929688 81.582031 58.261719 81.230469 58.261719 80.820312 L 58.261719 44.53125 C 58.28125 44.101562 57.929688 43.75 57.5 43.75 Z M 56.738281 60.175781 L 37.578125 60.175781 L 37.578125 45.292969 L 56.738281 45.292969 Z M 36.035156 64.414062 L 36.035156 80.058594 L 34.101562 80.058594 L 34.101562 64.414062 C 34.101562 63.984375 33.75 63.652344 33.339844 63.652344 L 13.417969 63.652344 L 13.417969 61.71875 L 33.339844 61.71875 C 33.769531 61.71875 34.101562 61.367188 34.101562 60.957031 L 34.101562 45.3125 L 36.035156 45.3125 L 36.035156 60.9375 C 36.035156 61.367188 36.386719 61.699219 36.796875 61.699219 L 56.71875 61.699219 L 56.71875 63.632812 L 36.796875 63.632812 C 36.367188 63.652344 36.035156 63.984375 36.035156 64.414062 Z M 32.558594 45.292969 L 32.558594 60.175781 L 13.398438 60.175781 L 13.398438 45.292969 Z M 13.398438 65.175781 L 32.558594 65.175781 L 32.558594 80.058594 L 13.398438 80.058594 Z M 37.578125 80.058594 L 37.578125 65.175781 L 56.738281 65.175781 L 56.738281 80.058594 Z M 37.578125 80.058594 "/>
<path style=" stroke:none;fill-rule:nonzero;fill:rgb(48.235294%,87.058824%,61.960784%);fill-opacity:1;" d="M 15.390625 30.410156 L 29.238281 30.410156 L 29.238281 33.300781 C 29.238281 35.214844 28.457031 36.953125 27.207031 38.183594 C 25.957031 39.433594 24.238281 40.214844 22.324219 40.214844 C 18.496094 40.214844 15.410156 37.109375 15.410156 33.300781 L 15.410156 30.410156 Z M 15.390625 30.410156 "/>
<path style=" stroke:none;fill-rule:nonzero;fill:rgb(48.235294%,87.058824%,61.960784%);fill-opacity:1;" d="M 84.609375 30.410156 L 84.609375 33.300781 C 84.609375 35.214844 83.828125 36.953125 82.578125 38.183594 C 81.328125 39.433594 79.609375 40.214844 77.695312 40.214844 C 73.867188 40.214844 70.78125 37.109375 70.78125 33.300781 L 70.78125 30.410156 Z M 84.609375 30.410156 "/>
<path style=" stroke:none;fill-rule:nonzero;fill:rgb(48.235294%,87.058824%,61.960784%);fill-opacity:1;" d="M 43.085938 30.410156 L 56.933594 30.410156 L 56.933594 33.300781 C 56.933594 35.214844 56.152344 36.953125 54.902344 38.183594 C 53.652344 39.433594 51.933594 40.214844 50.019531 40.214844 C 46.191406 40.214844 43.105469 37.109375 43.105469 33.300781 L 43.105469 30.410156 Z M 43.085938 30.410156 "/>
<path style=" stroke:none;fill-rule:nonzero;fill:rgb(99.607843%,86.666667%,55.686275%);fill-opacity:1;" d="M 1.542969 30.410156 L 15.390625 30.410156 L 15.390625 33.300781 C 15.390625 35.214844 14.609375 36.953125 13.359375 38.183594 C 12.109375 39.453125 10.371094 40.234375 8.457031 40.234375 C 4.628906 40.234375 1.542969 37.128906 1.542969 33.320312 Z M 1.542969 30.410156 "/>
<path style=" stroke:none;fill-rule:nonzero;fill:rgb(99.607843%,86.666667%,55.686275%);fill-opacity:1;" d="M 56.914062 30.410156 L 70.761719 30.410156 L 70.761719 33.300781 C 70.761719 35.214844 69.980469 36.953125 68.730469 38.183594 C 67.480469 39.433594 65.761719 40.214844 63.847656 40.214844 C 60.019531 40.214844 56.933594 37.109375 56.933594 33.300781 L 56.933594 30.410156 Z M 56.914062 30.410156 "/>
<path style=" stroke:none;fill-rule:nonzero;fill:rgb(99.607843%,86.666667%,55.686275%);fill-opacity:1;" d="M 29.238281 30.410156 L 43.085938 30.410156 L 43.085938 33.300781 C 43.085938 35.214844 42.304688 36.953125 41.054688 38.183594 C 39.804688 39.433594 38.085938 40.214844 36.171875 40.214844 C 32.34375 40.214844 29.257812 37.109375 29.257812 33.300781 L 29.257812 30.410156 Z M 29.238281 30.410156 "/>
<path style=" stroke:none;fill-rule:nonzero;fill:rgb(99.607843%,86.666667%,55.686275%);fill-opacity:1;" d="M 98.457031 30.410156 L 98.457031 33.300781 C 98.457031 35.214844 97.675781 36.953125 96.425781 38.183594 C 95.175781 39.433594 93.457031 40.214844 91.542969 40.214844 C 87.714844 40.214844 84.628906 37.109375 84.628906 33.300781 L 84.628906 30.410156 Z M 98.457031 30.410156 "/>
<path style=" stroke:none;fill-rule:nonzero;fill:rgb(99.607843%,86.666667%,55.686275%);fill-opacity:1;" d="M 19.785156 12.890625 L 15.390625 30.410156 L 1.542969 30.410156 L 7.695312 12.890625 Z M 19.785156 12.890625 "/>
<path style=" stroke:none;fill-rule:nonzero;fill:rgb(48.235294%,87.058824%,61.960784%);fill-opacity:1;" d="M 31.875 12.890625 L 29.238281 30.410156 L 15.390625 30.410156 L 19.785156 12.890625 Z M 31.875 12.890625 "/>
<path style=" stroke:none;fill-rule:nonzero;fill:rgb(99.607843%,86.666667%,55.686275%);fill-opacity:1;" d="M 43.964844 12.890625 L 43.085938 30.410156 L 29.238281 30.410156 L 31.875 12.890625 Z M 43.964844 12.890625 "/>
<path style=" stroke:none;fill-rule:nonzero;fill:rgb(48.235294%,87.058824%,61.960784%);fill-opacity:1;" d="M 56.035156 12.890625 L 56.914062 30.410156 L 43.085938 30.410156 L 43.964844 12.890625 Z M 56.035156 12.890625 "/>
<path style=" stroke:none;fill-rule:nonzero;fill:rgb(99.607843%,86.666667%,55.686275%);fill-opacity:1;" d="M 68.125 12.890625 L 70.761719 30.410156 L 56.914062 30.410156 L 56.035156 12.890625 Z M 68.125 12.890625 "/>
<path style=" stroke:none;fill-rule:nonzero;fill:rgb(48.235294%,87.058824%,61.960784%);fill-opacity:1;" d="M 80.214844 12.890625 L 84.609375 30.410156 L 70.761719 30.410156 L 68.125 12.890625 Z M 80.214844 12.890625 "/>
<path style=" stroke:none;fill-rule:nonzero;fill:rgb(99.607843%,86.666667%,55.686275%);fill-opacity:1;" d="M 92.304688 12.890625 L 98.457031 30.410156 L 84.609375 30.410156 L 80.214844 12.890625 Z M 92.304688 12.890625 "/>
<path style=" stroke:none;fill-rule:nonzero;fill:rgb(65.490196%,91.764706%,74.901961%);fill-opacity:1;" d="M 23.984375 40.019531 C 23.457031 40.15625 22.890625 40.214844 22.304688 40.214844 C 18.476562 40.214844 15.390625 37.109375 15.390625 33.300781 L 15.390625 30.410156 L 18.730469 30.410156 L 18.730469 33.300781 C 18.730469 36.542969 20.976562 39.277344 23.984375 40.019531 Z M 23.984375 40.019531 "/>
<path style=" stroke:none;fill-rule:nonzero;fill:rgb(65.490196%,91.764706%,74.901961%);fill-opacity:1;" d="M 79.375 40.019531 C 78.847656 40.15625 78.28125 40.214844 77.695312 40.214844 C 73.867188 40.214844 70.78125 37.109375 70.78125 33.300781 L 70.78125 30.410156 L 74.121094 30.410156 L 74.121094 33.300781 C 74.121094 36.542969 76.347656 39.277344 79.375 40.019531 Z M 79.375 40.019531 "/>
<path style=" stroke:none;fill-rule:nonzero;fill:rgb(65.490196%,91.764706%,74.901961%);fill-opacity:1;" d="M 51.679688 40.019531 C 51.152344 40.15625 50.585938 40.214844 50 40.214844 C 46.171875 40.214844 43.085938 37.109375 43.085938 33.300781 L 43.085938 30.410156 L 46.425781 30.410156 L 46.425781 33.300781 C 46.425781 36.542969 48.671875 39.277344 51.679688 40.019531 Z M 51.679688 40.019531 "/>
<path style=" stroke:none;fill-rule:nonzero;fill:rgb(99.607843%,91.372549%,70.588235%);fill-opacity:1;" d="M 10.136719 40.019531 C 9.609375 40.15625 9.042969 40.214844 8.457031 40.214844 C 4.628906 40.214844 1.542969 37.109375 1.542969 33.300781 L 1.542969 30.410156 L 4.882812 30.410156 L 4.882812 33.300781 C 4.882812 36.542969 7.128906 39.277344 10.136719 40.019531 Z M 10.136719 40.019531 "/>
<path style=" stroke:none;fill-rule:nonzero;fill:rgb(99.607843%,91.372549%,70.588235%);fill-opacity:1;" d="M 65.527344 40.019531 C 65 40.15625 64.433594 40.214844 63.847656 40.214844 C 60.019531 40.214844 56.933594 37.109375 56.933594 33.300781 L 56.933594 30.410156 L 60.273438 30.410156 L 60.273438 33.300781 C 60.273438 36.542969 62.5 39.277344 65.527344 40.019531 Z M 65.527344 40.019531 "/>
<path style=" stroke:none;fill-rule:nonzero;fill:rgb(99.607843%,91.372549%,70.588235%);fill-opacity:1;" d="M 37.832031 40.019531 C 37.304688 40.15625 36.738281 40.214844 36.152344 40.214844 C 32.324219 40.214844 29.238281 37.109375 29.238281 33.300781 L 29.238281 30.410156 L 32.578125 30.410156 L 32.578125 33.300781 C 32.578125 36.542969 34.824219 39.277344 37.832031 40.019531 Z M 37.832031 40.019531 "/>
<path style=" stroke:none;fill-rule:nonzero;fill:rgb(99.607843%,91.372549%,70.588235%);fill-opacity:1;" d="M 93.222656 40.019531 C 92.695312 40.15625 92.128906 40.214844 91.542969 40.214844 C 87.714844 40.214844 84.628906 37.109375 84.628906 33.300781 L 84.628906 30.410156 L 87.96875 30.410156 L 87.96875 33.300781 C 87.96875 36.542969 90.195312 39.277344 93.222656 40.019531 Z M 93.222656 40.019531 "/>
<path style=" stroke:none;fill-rule:nonzero;fill:rgb(99.607843%,91.372549%,70.588235%);fill-opacity:1;" d="M 11.054688 12.890625 L 4.882812 30.410156 L 1.542969 30.410156 L 7.695312 12.890625 Z M 11.054688 12.890625 "/>
<path style=" stroke:none;fill-rule:nonzero;fill:rgb(65.490196%,91.764706%,74.901961%);fill-opacity:1;" d="M 23.125 12.890625 L 18.730469 30.410156 L 15.390625 30.410156 L 19.785156 12.890625 Z M 23.125 12.890625 "/>
<path style=" stroke:none;fill-rule:nonzero;fill:rgb(99.607843%,91.372549%,70.588235%);fill-opacity:1;" d="M 35.214844 12.890625 L 32.578125 30.410156 L 29.238281 30.410156 L 31.875 12.890625 Z M 35.214844 12.890625 "/>
<path style=" stroke:none;fill-rule:nonzero;fill:rgb(65.490196%,91.764706%,74.901961%);fill-opacity:1;" d="M 47.304688 12.890625 L 46.425781 30.410156 L 43.085938 30.410156 L 43.964844 12.890625 Z M 47.304688 12.890625 "/>
<path style=" stroke:none;fill-rule:nonzero;fill:rgb(99.607843%,91.372549%,70.588235%);fill-opacity:1;" d="M 60.273438 30.410156 L 56.933594 30.410156 L 56.035156 12.890625 L 59.394531 12.890625 Z M 60.273438 30.410156 "/>
<path style=" stroke:none;fill-rule:nonzero;fill:rgb(65.490196%,91.764706%,74.901961%);fill-opacity:1;" d="M 74.121094 30.410156 L 70.761719 30.410156 L 68.125 12.890625 L 71.484375 12.890625 Z M 74.121094 30.410156 "/>
<path style=" stroke:none;fill-rule:nonzero;fill:rgb(99.607843%,91.372549%,70.588235%);fill-opacity:1;" d="M 87.96875 30.410156 L 84.609375 30.410156 L 80.214844 12.890625 L 83.554688 12.890625 Z M 87.96875 30.410156 "/>
<path style=" stroke:none;fill-rule:nonzero;fill:rgb(31.764706%,82.352941%,49.803922%);fill-opacity:1;" d="M 29.238281 30.410156 L 29.238281 33.300781 C 29.238281 35.214844 28.457031 36.953125 27.207031 38.183594 C 25.957031 39.433594 24.238281 40.214844 22.324219 40.214844 C 21.738281 40.214844 21.191406 40.136719 20.664062 40.019531 C 21.894531 39.707031 23.007812 39.0625 23.886719 38.183594 C 25.136719 36.933594 25.917969 35.195312 25.917969 33.300781 L 25.917969 30.410156 Z M 29.238281 30.410156 "/>
<path style=" stroke:none;fill-rule:nonzero;fill:rgb(31.764706%,82.352941%,49.803922%);fill-opacity:1;" d="M 84.609375 30.410156 L 84.609375 33.300781 C 84.609375 35.214844 83.828125 36.953125 82.578125 38.183594 C 81.328125 39.433594 79.609375 40.214844 77.695312 40.214844 C 77.109375 40.214844 76.5625 40.136719 76.035156 40.019531 C 77.265625 39.707031 78.378906 39.0625 79.257812 38.183594 C 80.507812 36.933594 81.289062 35.195312 81.289062 33.300781 L 81.289062 30.410156 Z M 84.609375 30.410156 "/>
<path style=" stroke:none;fill-rule:nonzero;fill:rgb(31.764706%,82.352941%,49.803922%);fill-opacity:1;" d="M 56.914062 30.410156 L 56.914062 33.300781 C 56.914062 35.214844 56.132812 36.953125 54.882812 38.183594 C 53.632812 39.433594 51.914062 40.214844 50 40.214844 C 49.414062 40.214844 48.867188 40.136719 48.339844 40.019531 C 49.570312 39.707031 50.683594 39.0625 51.5625 38.183594 C 52.8125 36.933594 53.59375 35.195312 53.59375 33.300781 L 53.59375 30.410156 Z M 56.914062 30.410156 "/>
<path style=" stroke:none;fill-rule:nonzero;fill:rgb(99.215686%,82.745098%,40.392157%);fill-opacity:1;" d="M 15.390625 30.410156 L 15.390625 33.300781 C 15.390625 35.214844 14.609375 36.953125 13.359375 38.183594 C 12.109375 39.453125 10.371094 40.234375 8.457031 40.234375 C 7.871094 40.234375 7.324219 40.15625 6.796875 40.039062 C 8.027344 39.726562 9.140625 39.082031 10.019531 38.203125 C 11.269531 36.953125 12.050781 35.214844 12.050781 33.320312 L 12.050781 30.429688 L 15.390625 30.429688 Z M 15.390625 30.410156 "/>
<path style=" stroke:none;fill-rule:nonzero;fill:rgb(99.215686%,82.745098%,40.392157%);fill-opacity:1;" d="M 70.761719 30.410156 L 70.761719 33.300781 C 70.761719 35.214844 69.980469 36.953125 68.730469 38.183594 C 67.480469 39.433594 65.761719 40.214844 63.847656 40.214844 C 63.261719 40.214844 62.714844 40.136719 62.1875 40.019531 C 63.417969 39.707031 64.53125 39.0625 65.410156 38.183594 C 66.660156 36.933594 67.441406 35.195312 67.441406 33.300781 L 67.441406 30.410156 Z M 70.761719 30.410156 "/>
<path style=" stroke:none;fill-rule:nonzero;fill:rgb(99.215686%,82.745098%,40.392157%);fill-opacity:1;" d="M 43.085938 30.410156 L 43.085938 33.300781 C 43.085938 35.214844 42.304688 36.953125 41.054688 38.183594 C 39.804688 39.433594 38.085938 40.214844 36.171875 40.214844 C 35.585938 40.214844 35.039062 40.136719 34.511719 40.019531 C 35.742188 39.707031 36.855469 39.0625 37.734375 38.183594 C 38.984375 36.933594 39.765625 35.195312 39.765625 33.300781 L 39.765625 30.410156 Z M 43.085938 30.410156 "/>
<path style=" stroke:none;fill-rule:nonzero;fill:rgb(99.215686%,82.745098%,40.392157%);fill-opacity:1;" d="M 98.457031 30.410156 L 98.457031 33.300781 C 98.457031 35.214844 97.675781 36.953125 96.425781 38.183594 C 95.175781 39.433594 93.457031 40.214844 91.542969 40.214844 C 90.957031 40.214844 90.410156 40.136719 89.882812 40.019531 C 91.113281 39.707031 92.226562 39.0625 93.105469 38.183594 C 94.355469 36.933594 95.136719 35.195312 95.136719 33.300781 L 95.136719 30.410156 Z M 98.457031 30.410156 "/>
<path style=" stroke:none;fill-rule:nonzero;fill:rgb(99.215686%,82.745098%,40.392157%);fill-opacity:1;" d="M 19.785156 12.890625 L 15.390625 30.410156 L 12.03125 30.410156 L 16.445312 12.890625 Z M 19.785156 12.890625 "/>
<path style=" stroke:none;fill-rule:nonzero;fill:rgb(31.764706%,82.352941%,49.803922%);fill-opacity:1;" d="M 31.875 12.890625 L 29.238281 30.410156 L 25.878906 30.410156 L 28.515625 12.890625 Z M 31.875 12.890625 "/>
<path style=" stroke:none;fill-rule:nonzero;fill:rgb(99.215686%,82.745098%,40.392157%);fill-opacity:1;" d="M 43.964844 12.890625 L 43.085938 30.410156 L 39.726562 30.410156 L 40.605469 12.890625 Z M 43.964844 12.890625 "/>
<path style=" stroke:none;fill-rule:nonzero;fill:rgb(31.764706%,82.352941%,49.803922%);fill-opacity:1;" d="M 56.914062 30.410156 L 53.574219 30.410156 L 52.695312 12.890625 L 56.054688 12.890625 Z M 56.914062 30.410156 "/>
<path style=" stroke:none;fill-rule:nonzero;fill:rgb(99.215686%,82.745098%,40.392157%);fill-opacity:1;" d="M 70.761719 30.410156 L 67.421875 30.410156 L 64.785156 12.890625 L 68.125 12.890625 Z M 70.761719 30.410156 "/>
<path style=" stroke:none;fill-rule:nonzero;fill:rgb(31.764706%,82.352941%,49.803922%);fill-opacity:1;" d="M 84.609375 30.410156 L 81.269531 30.410156 L 76.875 12.890625 L 80.214844 12.890625 Z M 84.609375 30.410156 "/>
<path style=" stroke:none;fill-rule:nonzero;fill:rgb(99.215686%,82.745098%,40.392157%);fill-opacity:1;" d="M 98.457031 30.410156 L 95.117188 30.410156 L 88.945312 12.890625 L 92.304688 12.890625 Z M 98.457031 30.410156 "/>
<path style=" stroke:none;fill-rule:nonzero;fill:rgb(20%,20%,20%);fill-opacity:1;" d="M 99.238281 91.523438 L 95.703125 91.523438 L 95.703125 87.539062 C 95.703125 87.109375 95.351562 86.777344 94.941406 86.777344 L 93.085938 86.777344 L 93.085938 40.878906 C 94.550781 40.585938 95.898438 39.863281 96.992188 38.769531 C 98.457031 37.324219 99.257812 35.390625 99.257812 33.339844 L 99.257812 30.449219 C 99.257812 30.429688 99.257812 30.429688 99.257812 30.410156 C 99.257812 30.332031 99.238281 30.253906 99.21875 30.195312 L 99.199219 30.15625 L 93.105469 12.792969 L 93.105469 5.019531 C 93.105469 3.457031 91.640625 2.1875 89.824219 2.1875 L 10.214844 2.1875 C 8.417969 2.1875 6.933594 3.457031 6.933594 5.019531 L 6.933594 12.753906 L 0.820312 30.15625 C 0.78125 30.234375 0.78125 30.3125 0.78125 30.390625 C 0.78125 30.390625 0.78125 30.410156 0.78125 30.410156 L 0.78125 33.300781 C 0.78125 37.011719 3.4375 40.117188 6.933594 40.839844 L 6.933594 86.738281 L 5.078125 86.738281 C 4.648438 86.738281 4.316406 87.089844 4.316406 87.5 L 4.316406 91.484375 L 0.761719 91.484375 C 0.332031 91.484375 0 91.835938 0 92.246094 L 0 97.011719 C 0 97.441406 0.351562 97.773438 0.761719 97.773438 L 99.21875 97.773438 C 99.648438 97.773438 99.980469 97.421875 99.980469 97.011719 L 99.980469 92.246094 C 100 91.855469 99.648438 91.523438 99.238281 91.523438 Z M 97.695312 33.300781 C 97.695312 34.941406 97.050781 36.484375 95.898438 37.65625 C 94.726562 38.828125 93.183594 39.453125 91.542969 39.453125 C 88.144531 39.453125 85.390625 36.699219 85.390625 33.300781 L 85.390625 31.171875 L 97.695312 31.171875 Z M 87.382812 43.75 L 62.421875 43.75 C 61.992188 43.75 61.660156 44.101562 61.660156 44.511719 L 61.660156 86.738281 L 8.476562 86.738281 L 8.476562 40.996094 C 10.527344 40.996094 12.460938 40.195312 13.90625 38.75 C 14.53125 38.125 15.019531 37.421875 15.390625 36.640625 C 16.640625 39.21875 19.257812 40.996094 22.304688 40.996094 C 24.355469 40.996094 26.289062 40.195312 27.734375 38.75 C 28.359375 38.125 28.847656 37.421875 29.21875 36.640625 C 30.46875 39.21875 33.085938 40.996094 36.132812 40.996094 C 38.183594 40.996094 40.117188 40.195312 41.5625 38.75 C 42.1875 38.125 42.675781 37.421875 43.046875 36.640625 C 44.296875 39.21875 46.914062 40.996094 49.960938 40.996094 C 52.011719 40.996094 53.945312 40.195312 55.390625 38.75 C 56.015625 38.125 56.503906 37.421875 56.875 36.640625 C 58.125 39.21875 60.742188 40.996094 63.789062 40.996094 C 65.839844 40.996094 67.773438 40.195312 69.21875 38.75 C 69.84375 38.125 70.332031 37.421875 70.703125 36.640625 C 71.953125 39.21875 74.570312 40.996094 77.617188 40.996094 C 79.667969 40.996094 81.601562 40.195312 83.046875 38.75 C 83.671875 38.125 84.160156 37.421875 84.53125 36.640625 C 85.78125 39.21875 88.398438 40.996094 91.445312 40.996094 L 91.445312 86.738281 L 88.066406 86.738281 L 88.066406 44.53125 C 88.144531 44.101562 87.8125 43.75 87.382812 43.75 Z M 63.203125 65.253906 L 63.203125 45.292969 L 86.621094 45.292969 L 86.621094 65.253906 Z M 86.601562 66.796875 L 86.601562 86.757812 L 63.203125 86.757812 L 63.203125 66.796875 Z M 30.117188 29.648438 L 32.519531 13.652344 L 43.125 13.652344 L 43.085938 14.589844 L 42.324219 29.648438 Z M 42.304688 31.171875 L 42.304688 33.300781 C 42.304688 34.941406 41.660156 36.484375 40.507812 37.65625 C 39.335938 38.828125 37.792969 39.453125 36.152344 39.453125 C 32.753906 39.453125 30 36.699219 30 33.300781 L 30 31.171875 Z M 28.574219 29.648438 L 16.367188 29.648438 L 20.371094 13.652344 L 30.957031 13.652344 Z M 28.457031 31.171875 L 28.457031 33.300781 C 28.457031 34.941406 27.8125 36.484375 26.660156 37.65625 C 25.488281 38.828125 23.945312 39.453125 22.304688 39.453125 C 18.90625 39.453125 16.152344 36.699219 16.152344 33.300781 L 16.152344 31.171875 Z M 56.152344 31.171875 L 56.152344 33.300781 C 56.152344 34.941406 55.507812 36.484375 54.355469 37.65625 C 53.183594 38.828125 51.640625 39.453125 50 39.453125 C 46.601562 39.453125 43.847656 36.699219 43.847656 33.300781 L 43.847656 31.171875 Z M 43.886719 29.648438 L 43.925781 28.710938 L 44.6875 13.652344 L 55.3125 13.652344 L 55.917969 25.820312 L 56.113281 29.628906 L 43.886719 29.628906 Z M 71.425781 29.648438 L 69.023438 13.652344 L 79.609375 13.652344 L 83.613281 29.648438 Z M 83.847656 31.171875 L 83.847656 33.300781 C 83.847656 34.941406 83.203125 36.484375 82.050781 37.65625 C 80.878906 38.828125 79.335938 39.453125 77.695312 39.453125 C 74.296875 39.453125 71.542969 36.699219 71.542969 33.300781 L 71.542969 31.171875 Z M 69.882812 29.648438 L 57.65625 29.648438 L 57.050781 17.480469 L 56.855469 13.671875 L 67.460938 13.671875 Z M 70 31.171875 L 70 33.300781 C 70 34.941406 69.355469 36.484375 68.203125 37.65625 C 67.03125 38.828125 65.488281 39.453125 63.847656 39.453125 C 60.449219 39.453125 57.695312 36.699219 57.695312 33.300781 L 57.695312 31.171875 Z M 97.382812 29.648438 L 85.214844 29.648438 L 81.210938 13.652344 L 91.757812 13.652344 Z M 8.476562 5.019531 C 8.476562 4.316406 9.277344 3.730469 10.214844 3.730469 L 89.804688 3.730469 C 90.742188 3.730469 91.542969 4.316406 91.542969 5.019531 L 91.542969 12.109375 L 8.476562 12.109375 Z M 8.242188 13.652344 L 18.789062 13.652344 L 14.785156 29.648438 L 2.617188 29.648438 Z M 2.304688 33.300781 L 2.304688 31.171875 L 14.609375 31.171875 L 14.609375 33.300781 C 14.609375 34.941406 13.964844 36.484375 12.8125 37.65625 C 11.640625 38.828125 10.097656 39.453125 8.457031 39.453125 C 5.078125 39.453125 2.304688 36.699219 2.304688 33.300781 Z M 5.839844 88.28125 L 94.160156 88.28125 L 94.160156 91.503906 L 5.839844 91.503906 Z M 98.457031 96.289062 L 1.542969 96.289062 L 1.542969 93.066406 L 98.457031 93.066406 Z M 98.457031 96.289062 "/>
</g>
</svg>
